<?xml version="1.0" encoding="UTF-8" standalone="no"?><svg version="1.1" viewBox="0 0 1024 1024" xml:space="preserve" xmlns:xlink="http://www.w3.org/1999/xlink" xmlns="http://www.w3.org/2000/svg" xmlns:svg="http://www.w3.org/2000/svg"><defs><linearGradient id="d"><stop offset="0" stop-color="#fff"/><stop offset=".31614786" stop-color="#fff"/><stop offset=".54669261" stop-color="#f9fcff"/><stop offset=".80836576" stop-color="#d9effe"/><stop offset="1" stop-color="#b4e0fd"/></linearGradient><linearGradient id="b"><stop offset="0" stop-color="#19b1f8"/><stop offset=".25" stop-color="#19abf7"/><stop offset=".5" stop-color="#19a6f7"/><stop offset=".75" stop-color="#1aa0f6"/><stop offset="1" stop-color="#1a9ef6"/></linearGradient><linearGradient id="c"><stop offset="0" stop-color="#18c1fa"/><stop offset="1" stop-color="#1d75f2"/></linearGradient><linearGradient xlink:href="#a" id="e" gradientUnits="userSpaceOnUse" x1="512" y1="0" x2="512" y2="1024"/><linearGradient id="a"><stop offset="0" stop-color="#313131"/><stop offset=".5" stop-color="#222"/><stop offset="1" stop-color="#141414"/></linearGradient><linearGradient xlink:href="#b" id="f" x1="512" y1="216" x2="512" y2="809" gradientUnits="userSpaceOnUse" gradientTransform="matrix(.42057293 0 0 .25801012 74.166665 160.26982)"/><linearGradient xlink:href="#c" id="h" gradientUnits="userSpaceOnUse" x1="512" y1="216" x2="512" y2="809" gradientTransform="matrix(1 0 0 .79089375 0 169.16694)"/><linearGradient xlink:href="#d" id="g" x1="512" y1="312" x2="512" y2="340" gradientUnits="userSpaceOnUse"/></defs><path d="M1023.9999 703.6703c0 12.24394 0 24.46578-.0923 36.68749-.0607 10.3073-.1779 20.61447-.4453 30.89954-.2837 22.5344-2.2629 45.01565-5.9213 67.25295-3.8067 22.26183-10.9078 43.8113-21.08088 63.9583-20.61945 40.48081-53.52839 73.39129-94.0071 94.01169-20.13757 10.15963-41.67821 17.25773-63.91054 21.05973-22.26075 3.6732-44.74408 5.6545-67.27194 5.9217-10.29726.2661-20.59722.4218-30.89785.4669-12.2434.0714-24.46445.0714-36.68562.0714H320.3129c-12.22115 0-24.44231 0-36.68569-.0606-10.30054-.0405-20.60048-.1866-30.89786-.4453-22.54148-.2877-45.0292-2.2745-67.27197-5.944-22.23846-3.7846-43.78676-10.9085-63.91051-21.05986-40.474453-20.61649-73.382628-53.51855-94.007081-93.99013-10.169994-20.15946-17.275178-41.72376-21.0808488-63.98053C2.8006217 816.28975.82124261 793.81592.53759651 771.28886c-.26726224-10.3073-.40038136-20.61447-.44543709-30.9217C0 728.12315 0 715.9236 0 703.67966V320.33072c0-12.24407 0-24.48805.09215942-36.73201.04096-10.28505.17817485-20.59224.44543709-30.87719.2836461-22.52708 2.26333229-45.00092 5.92134369-67.23084 3.8065928-22.26176 10.9077838-43.81123 21.0808488-63.98046 20.619436-40.480777 53.52833-73.391427 94.007081-94.011821 20.13183-10.154396 41.66437-17.252253 63.8883-21.0596905C207.69585 2.7877383 230.17916.80650253 252.70702.51712013 263.01382.24985607 273.32052.11673607 283.60489.07168 295.84836 0 308.09175 0 320.29058 0h383.3742c12.24346 0 24.48687 0 36.70798.07168 10.30056.04096 20.60038.18636807 30.89785.44544013 22.52786.289792 45.01119 2.27061817 67.24964 5.92158837 22.26069 3.8068235 43.78692 10.9083665 63.93283 21.0596905 40.48882 20.614147 73.40659 53.525823 94.02934 94.011821 10.16138 20.15325 17.25908 41.71 21.05858 63.95824 3.6587 22.23729 5.638 44.7185 5.9214 67.25306.2674 10.30717.4002 20.61446.4453 30.89941.0923 12.24398.0923 24.46572.0923 36.68746Z" fill="url(#e)"/><path d="M200.61719 216c-10.2013.00005-22.92549.11399-30.57227 1.4668-5.04165.86085-10.12135 2.43511-14.68359 4.74414-9.17589 4.68945-16.63677 12.22007-21.3125 21.42578-2.30564 4.58551-3.72122 9.49018-4.58399 14.55273C128.26762 265.48851 128 272.19679 128 288.86133V369h768v-27.13867c0-16.66454-.26762-23.37282-1.46484-30.67188-.86277-5.06255-2.27835-9.96722-4.58399-14.55273-4.67573-9.20571-12.13661-16.73633-21.3125-21.42578-4.56224-2.30903-9.64194-3.88329-14.68359-4.74414-7.64678-1.35281-20.37097-1.46675-30.57227-1.4668H423.87172c-10.1377 0-10.8033-.29454-15.40016-.8397-5.26527-.62443-9.78169-1.89871-13.91757-3.65119-4.77454-2.0231-9.07575-5.10011-13.16998-8.73836-3.33652-2.96493-6.47978-6.05256-9.39325-9.13938-1.98342-2.10143-5.24235-5.24292-8.02276-8.07861-3.45326-3.52192-6.27691-6.57212-6.27691-6.57212-3.02864-2.91723-5.12966-4.91095-7.64055-6.62677-2.46816-1.68662-5.1612-3.24193-8.17845-4.63587-6.3326-2.92559-13.37007-4.718-24.27285-4.718Z" fill="url(#f)"/><path d="M188.55859 312c-4.01188.00002-9.01617.04415-12.02343.57617-1.98274.33855-3.98121.9591-5.77539 1.86719-3.60862 1.84422-6.54203 4.80544-8.38086 8.42578-.90675 1.80335-1.46343 3.73171-1.80274 5.72266-.47082 2.87052-.57617 5.50882-.57617 12.0625V412h704v-71.3457c0-6.55368-.10535-9.19198-.57617-12.0625-.33931-1.99095-.89599-3.91931-1.80274-5.72266-1.83883-3.62034-4.77224-6.58156-8.38086-8.42578-1.79418-.90809-3.79265-1.52864-5.77539-1.86719-3.00726-.53202-8.01155-.57615-12.02343-.57617Z" fill="url(#g)"/><path d="M156.55859 340c-4.01188.00002-9.01617.04415-12.02343.57617-1.98274.33855-3.98121.9591-5.77539 1.86719-3.60862 1.84422-6.54203 4.80544-8.38086 8.42578-.90675 1.80335-1.46343 3.73171-1.80274 5.72266-.47082 2.87052-.57617 5.50882-.57617 12.0625v366.15429c0 16.96879.27297 23.8001 1.49609 31.23243.88145 5.15498 2.32808 10.14912 4.6836 14.81836 4.77691 9.37378 12.39898 17.04133 21.77343 21.8164 4.66096 2.35119 9.85121 3.95351 15.00196 4.83008 7.81224 1.37751 20.81233 1.49409 31.23437 1.49414h619.6211c10.42204-.00005 23.42213-.11663 31.23437-1.49414 5.15075-.87657 10.341-2.47889 15.00196-4.83008 9.37444-4.77507 16.99652-12.44263 21.77343-21.8164 2.35552-4.66924 3.80215-9.66338 4.6836-14.81836C895.72703 758.60869 896 751.77738 896 734.80859V368.6543c0-6.55368-.10535-9.19198-.57617-12.0625-.33931-1.99095-.89599-3.91931-1.80274-5.72266-1.83883-3.62034-4.77224-6.58156-8.38086-8.42578-1.79418-.90809-3.79265-1.52864-5.77539-1.86719-3.00726-.53202-8.01155-.57615-12.02343-.57617Z" fill="url(#h)"/></svg>