<?xml version="1.0" encoding="UTF-8" standalone="no"?>
<svg
   width="64"
   height="64"
   version="1.1"
   id="svg17"
   xml:space="preserve"
   xmlns:xlink="http://www.w3.org/1999/xlink"
   xmlns="http://www.w3.org/2000/svg"
   xmlns:svg="http://www.w3.org/2000/svg"><defs
     id="defs10"><linearGradient
       id="a"><stop
         offset="0"
         id="stop1" /><stop
         offset="1"
         stop-opacity="0"
         id="stop2" /></linearGradient><linearGradient
       id="g"
       x1="86"
       x2="63"
       y1="19.458"
       y2="39"
       gradientTransform="translate(-57.378 -5.17)scale(1.146)"
       gradientUnits="userSpaceOnUse"><stop
         offset="0"
         stop-color="#007abb"
         id="stop3" /><stop
         offset="1"
         stop-color="#006caf"
         id="stop4" /></linearGradient><linearGradient
       xlink:href="#a"
       id="j"
       x1="86"
       x2="83"
       y1="20"
       y2="20"
       gradientTransform="translate(-57.378 -5.17)scale(1.146)"
       gradientUnits="userSpaceOnUse" /><linearGradient
       id="h"
       x1="87"
       x2="63"
       y1="46"
       y2="24"
       gradientTransform="translate(-57.378 -5.17)scale(1.146)"
       gradientUnits="userSpaceOnUse"><stop
         offset="0"
         stop-color="#0080ce"
         id="stop5" /><stop
         offset="1"
         stop-color="#008fd5"
         id="stop6" /></linearGradient><linearGradient
       xlink:href="#a"
       id="i"
       x1="86"
       x2="83"
       y1="44"
       y2="44"
       gradientTransform="translate(-57.378 -5.17)scale(1.146)"
       gradientUnits="userSpaceOnUse" /><linearGradient
       xlink:href="#b"
       id="e"
       x1="2.598"
       x2="10.583"
       y1="2.836"
       y2="11.312"
       gradientUnits="userSpaceOnUse" /><linearGradient
       id="b"><stop
         offset="0"
         stop-color="#fff"
         id="stop7" /><stop
         offset="1"
         stop-color="#fff"
         stop-opacity="0"
         id="stop8" /></linearGradient><linearGradient
       xlink:href="#b"
       id="f"
       x1="15.081"
       x2="12.7"
       y1="14.816"
       y2="12.171"
       gradientUnits="userSpaceOnUse" /><linearGradient
       id="c"
       x1="8.466"
       x2="8.466"
       y1="1.058"
       y2="15.875"
       gradientTransform="scale(3.7796)"
       gradientUnits="userSpaceOnUse"><stop
         offset="0"
         stop-color="#323131"
         id="stop9" /><stop
         offset="1"
         stop-color="#141414"
         id="stop10" /></linearGradient><filter
       id="d"
       width="1.0239725"
       height="1.0239741"
       x="-0.011986232"
       y="-0.011987041"
       color-interpolation-filters="sRGB"><feGaussianBlur
         stdDeviation=".074"
         id="feGaussianBlur10" /></filter></defs><path
     fill="url(#c)"
     d="M20.26 4c-5.782 0-9.743 1.725-12.321 4.535C5.374 11.331 4 15.34 4 19.876v24.248c0 4.538 1.374 8.545 3.939 11.341C10.517 58.275 14.479 60 20.26 60h23.549c5.782 0 9.743-1.724 12.321-4.535C58.695 52.67 60 49.03 60 44.125V20.786c0-5.935-1.305-9.456-3.87-12.252C53.552 5.725 49.59 4 43.809 4H25.494z"
     id="path10"
     style="fill:#ffffff" /><g
     filter="url(#d)"
     opacity=".35"
     transform="scale(3.7796)"
     id="g12"><path
       fill="url(#e)"
       d="M5.36 1.058c-1.53 0-2.577.457-3.26 1.2-.678.74-1.042 1.8-1.042 3.001v6.415c0 1.2.364 2.26 1.043 3 .682.744 1.73 1.2 3.26 1.2h6.23c1.53 0 2.577-.456 3.26-1.2.678-.739 1.024-1.702 1.024-3V5.5c0-1.57-.346-2.502-1.024-3.242-.683-.743-1.73-1.2-3.26-1.2H6.745zm0 .264h6.232c1.477 0 2.437.432 3.064 1.116.634.69.954 1.53.954 3.062v6.174c0 1.251-.322 2.134-.954 2.822-.627.684-1.587 1.114-3.064 1.114H5.359c-1.477 0-2.437-.43-3.064-1.114-.625-.682-.973-1.675-.973-2.822V5.26c0-1.148.348-2.14.973-2.822.627-.684 1.587-1.116 3.064-1.116"
       id="path11" /><path
       fill="url(#f)"
       d="M5.36 1.058c-1.53 0-2.577.457-3.26 1.2-.678.74-1.042 1.8-1.042 3.001v6.415c0 1.2.364 2.26 1.043 3 .682.744 1.73 1.2 3.26 1.2h6.23c1.53 0 2.577-.456 3.26-1.2.678-.739 1.024-1.702 1.024-3V5.5c0-1.57-.346-2.502-1.024-3.242-.683-.743-1.73-1.2-3.26-1.2H6.745zm0 .264h6.232c1.477 0 2.437.432 3.064 1.116.634.69.954 1.53.954 3.062v6.174c0 1.251-.322 2.134-.954 2.822-.627.684-1.587 1.114-3.064 1.114H5.359c-1.477 0-2.437-.43-3.064-1.114-.625-.682-.973-1.675-.973-2.822V5.26c0-1.148.348-2.14.973-2.822.627-.684 1.587-1.116 3.064-1.116"
       id="path12" /></g><g
     style="fill:none"
     id="g17"
     transform="matrix(0.05722231,0,0,0.05722231,1.8899137,2.7073931)"><path
       d="m 897.246,286.869 h -7.427 c -39.084,-0.061 -70.802,31.591 -70.802,70.67 v 158.05 c 0,31.561 -26.087,57.127 -57.135,57.127 -18.446,0 -36.862,-9.283 -47.789,-24.866 L 552.673,317.304 c -13.393,-19.144 -35.187,-30.557 -58.778,-30.557 -36.801,0 -69.919,31.287 -69.919,69.91 v 158.962 c 0,31.562 -25.873,57.127 -57.134,57.127 -18.507,0 -36.893,-9.283 -47.821,-24.865 L 138.395,289.882 c -4.079,-5.844 -13.241,-2.952 -13.241,4.17 v 137.84 c 0,6.97 2.131,13.727 6.118,19.448 L 309.037,705.2 c 10.502,15.004 25.996,26.144 43.863,30.192 44.716,10.165 85.87,-24.257 85.87,-68.114 V 508.406 c 0,-31.561 25.569,-57.127 57.134,-57.127 h 0.091 c 19.025,0 36.862,9.283 47.79,24.866 l 161.45,230.516 c 13.424,19.174 34.092,30.557 58.748,30.557 37.623,0 69.858,-31.318 69.858,-69.91 V 508.376 c 0,-31.561 25.569,-57.127 57.134,-57.127 h 6.301 c 3.957,0 7.154,-3.196 7.154,-7.152 V 294.021 c 0,-3.956 -3.197,-7.152 -7.154,-7.152 z"
       fill="#0b100f"
       id="path1" /></g></svg>
